<svg width="64" height="64" viewBox="0 0 64 64" fill="none" xmlns="http://www.w3.org/2000/svg">
<path opacity="0.2" d="M61.4916 63.0047C61.4916 62.4589 49.2524 62.0094 34.1725 62.0094C19.0927 62.0094 6.85352 62.4589 6.85352 63.0047C6.85352 63.5505 19.0927 64 34.1725 64C49.2874 64 61.4916 63.5505 61.4916 63.0047Z" fill="#5D5D5D"/>
<path d="M34.5582 12.5971C46.4467 12.5971 56.0908 21.4265 56.0908 32.3107V52.0242H34.5582C22.6697 52.0242 13.0256 43.1949 13.0256 32.3107V12.5971H34.5582Z" fill="#63A60F"/>
<path opacity="0.3" d="M53.0047 22.1649C51.2162 24.0592 50.129 26.5314 50.129 29.2284C50.129 33.2418 52.5137 36.7414 56.0557 38.6357V32.3107C56.0557 28.6184 54.9686 25.1508 53.0047 22.1649Z" fill="#63A60F"/>
<path d="M44.553 14.8766C41.1863 16.6425 38.9419 19.9495 38.9419 23.7702C38.9419 29.421 43.9568 34.0123 50.129 34.0123C52.3033 34.0123 54.3373 33.4344 56.0557 32.439V32.3106C56.0557 24.7334 51.3915 18.1515 44.553 14.8766Z" fill="#63A60F"/>
<path opacity="0.5" d="M27.6496 16.4169C22.1086 16.4169 17.0235 18.1827 13.0256 21.1687V32.3418C13.0256 43.226 22.6697 52.0554 34.5582 52.0554H44.8686C48.621 48.2668 50.9005 43.2581 50.9005 37.7358C50.9005 25.9526 40.4849 16.4169 27.6496 16.4169Z" fill="#EFF6E7"/>
<path d="M56.0557 51.992L34.5582 52.0242C22.6697 52.0242 13.0256 43.1948 13.0256 32.3106V12.6292L56.0557 51.992Z" fill="#63A60F"/>
<path opacity="0.3" d="M16.3573 19.6605C16.3573 34.6223 29.6135 46.7265 45.9208 46.7265C47.3235 46.7265 48.6913 46.6302 50.0239 46.4697L16.6379 15.9362C16.4625 17.1562 16.3573 18.4084 16.3573 19.6605Z" fill="#63A60F"/>
<path opacity="0.3" d="M56.0558 52.0241L13.201 12.7897C18.251 19.6926 24.0726 26.6919 29.9993 32.4711C34.6284 36.9661 47.9899 47.0155 56.0558 52.0241Z" fill="#63A60F"/>
<path opacity="0.3" d="M27.0884 25.4719L13.0256 12.6292V32.3427C13.0256 41.0436 19.1978 48.4282 27.7197 51.0288C24.0725 47.6576 21.828 43.0343 21.828 37.9614C21.828 33.1454 23.827 28.7789 27.0884 25.4719Z" fill="#63A60F"/>
<path opacity="0.3" d="M46.2364 43.0344C42.5892 47.1119 37.0482 49.7447 30.8409 49.7447C26.7028 49.7447 22.8451 48.5888 19.6538 46.5982C23.5114 49.9694 28.7368 52.0564 34.5232 52.0564H56.0558V52.0242L46.2364 43.0344Z" fill="#63A60F"/>
<path opacity="0.3" d="M14.2881 24.4123C14.2881 21.2338 14.8843 18.1515 16.0065 15.3261L13.0256 12.6292V32.3427C13.0256 43.2269 22.6697 52.0563 34.5582 52.0563H56.0908V52.0242L53.9516 50.0657C50.8304 51.0931 47.4988 51.6389 43.9919 51.6389C27.5794 51.6068 14.2881 39.4383 14.2881 24.4123Z" fill="#EFF6E7"/>
<path d="M55.7052 55.8449C57.2132 55.4596 58.7913 56.2944 59.177 57.675C59.5979 59.0556 58.6861 60.5004 57.143 60.8536C55.635 61.2389 54.0569 60.4041 53.6712 59.0235C53.2854 57.6429 54.1972 56.2302 55.7052 55.8449ZM55.1441 53.8864C52.4437 54.5607 50.8305 57.065 51.567 59.5372C52.2684 62.0094 55.0389 63.4863 57.7392 62.8121C60.4395 62.1379 62.0527 59.6014 61.3163 57.1613C60.6149 54.6891 57.8444 53.2443 55.1441 53.8864Z" fill="#63A60F"/>
<path opacity="0.5" d="M58.7207 59.922C58.3349 60.3715 57.8089 60.7247 57.1776 60.8852C55.6697 61.2705 54.0915 60.4357 53.7058 59.0551C53.4252 58.0277 53.811 57.0003 54.6526 56.3903C54.2318 55.8444 53.8811 55.2344 53.5304 54.6244C51.8471 55.716 51.0054 57.6745 51.5665 59.6009C52.2679 62.0732 55.0384 63.5501 57.7387 62.8758C59.0012 62.5548 60.0182 61.8484 60.6846 60.9173C60.0182 60.5963 59.3519 60.2752 58.7207 59.922Z" fill="#63A60F"/>
<path d="M14.0423 55.8449C15.5503 55.4918 17.1284 56.3265 17.5142 57.7071C17.8999 59.0877 16.9881 60.5325 15.4801 60.8857C13.9721 61.2389 12.394 60.4041 12.0083 59.0235C11.6225 57.6429 12.5343 56.1981 14.0423 55.8449ZM13.4812 53.8864C10.7808 54.5286 9.16765 57.065 9.86903 59.5372C10.5704 62.0094 13.3409 63.4863 16.0412 62.8442C18.7416 62.2021 20.3548 59.6656 19.6885 57.1934C18.952 54.7212 16.1815 53.2443 13.4812 53.8864Z" fill="#63A60F"/>
<path opacity="0.5" d="M17.0236 59.9542C16.6378 60.4037 16.1118 60.7568 15.4805 60.8853C13.9726 61.2384 12.3944 60.4037 12.0087 59.0231C11.7281 57.9957 12.1489 56.9682 12.9555 56.3582C12.5347 55.8124 12.184 55.2024 11.8684 54.5923C10.1851 55.6519 9.30833 57.6104 9.86944 59.5368C10.5708 62.009 13.3413 63.4859 16.0416 62.8438C17.3041 62.5548 18.3562 61.8164 18.9875 60.8853C18.2861 60.6284 17.6548 60.3073 17.0236 59.9542Z" fill="#63A60F"/>
<path d="M14.3934 11.2486C13.727 11.2486 13.1659 10.7349 13.1659 10.1248C13.1659 7.49209 12.3593 5.50147 10.8163 4.1851C8.32636 2.03394 4.57394 2.25869 4.53887 2.25869C3.87255 2.3229 3.27637 1.8413 3.20624 1.23127C3.1361 0.621246 3.66214 0.0754309 4.32846 0.0112173C4.53887 0.0112173 9.16803 -0.30985 12.4645 2.48344C14.5687 4.24931 15.6208 6.81785 15.6208 10.0927C15.6208 10.7349 15.0947 11.2486 14.3934 11.2486Z" fill="#63A60F"/>
</svg>
