<svg width="16" height="16" viewBox="0 0 16 16" fill="none" xmlns="http://www.w3.org/2000/svg">
<path opacity="0.2" d="M15.3729 15.7511C15.3729 15.6147 12.3131 15.5023 8.54314 15.5023C4.77318 15.5023 1.71338 15.6147 1.71338 15.7511C1.71338 15.8876 4.77318 16 8.54314 16C12.3219 16 15.3729 15.8876 15.3729 15.7511Z" fill="#5D5D5D"/>
<path d="M8.63962 3.14929C11.6117 3.14929 14.0228 5.35663 14.0228 8.07768V13.0061H8.63962C5.66749 13.0061 3.25647 10.7987 3.25647 8.07768V3.14929H8.63962Z" fill="#63A60F"/>
<path opacity="0.3" d="M13.2513 5.54126C12.8041 6.01483 12.5323 6.63289 12.5323 7.30713C12.5323 8.31047 13.1285 9.18538 14.014 9.65895V8.07769C14.014 7.15462 13.7422 6.28774 13.2513 5.54126Z" fill="#63A60F"/>
<path d="M11.1382 3.71918C10.2966 4.16065 9.73547 4.98739 9.73547 5.94257C9.73547 7.35527 10.9892 8.50309 12.5323 8.50309C13.0758 8.50309 13.5843 8.3586 14.0139 8.10978V8.07767C14.0139 6.18337 12.8479 4.5379 11.1382 3.71918Z" fill="#63A60F"/>
<path opacity="0.5" d="M6.91245 4.10425C5.52721 4.10425 4.25595 4.54572 3.25647 5.2922V8.08549C3.25647 10.8065 5.66749 13.0139 8.63962 13.0139H11.2172C12.1553 12.0667 12.7252 10.8146 12.7252 9.43397C12.7252 6.48818 10.1213 4.10425 6.91245 4.10425Z" fill="#EFF6E7"/>
<path d="M14.014 12.998L8.63962 13.006C5.66749 13.006 3.25647 10.7987 3.25647 8.07765V3.15729L14.014 12.998Z" fill="#63A60F"/>
<path opacity="0.3" d="M4.08936 4.91517C4.08936 8.6556 7.40341 11.6817 11.4802 11.6817C11.8309 11.6817 12.1728 11.6576 12.506 11.6175L4.15949 3.98407C4.11566 4.28908 4.08936 4.60213 4.08936 4.91517Z" fill="#63A60F"/>
<path opacity="0.3" d="M14.014 13.0061L3.30029 3.19745C4.56279 4.92319 6.01817 6.67301 7.49985 8.11781C8.65714 9.24155 11.9975 11.7539 14.014 13.0061Z" fill="#63A60F"/>
<path opacity="0.3" d="M6.77217 6.36797L3.25647 3.15729V8.08568C3.25647 10.2609 4.79952 12.107 6.92999 12.7572C6.01818 11.9144 5.45707 10.7586 5.45707 9.49035C5.45707 8.28634 5.95681 7.19471 6.77217 6.36797Z" fill="#63A60F"/>
<path opacity="0.3" d="M11.5591 10.7586C10.6473 11.778 9.26205 12.4362 7.71023 12.4362C6.67569 12.4362 5.71128 12.1472 4.91345 11.6496C5.87786 12.4924 7.18419 13.0141 8.63081 13.0141H14.014V13.0061L11.5591 10.7586Z" fill="#63A60F"/>
<path opacity="0.3" d="M3.57209 6.10308C3.57209 5.30844 3.72114 4.53788 4.00169 3.83153L3.25647 3.15729V8.08568C3.25647 10.8067 5.66749 13.0141 8.63962 13.0141H14.0228V13.006L13.488 12.5164C12.7077 12.7733 11.8748 12.9097 10.998 12.9097C6.89492 12.9017 3.57209 9.85958 3.57209 6.10308Z" fill="#EFF6E7"/>
<path d="M13.9264 13.9612C14.3034 13.8649 14.6979 14.0736 14.7944 14.4188C14.8996 14.7639 14.6716 15.1251 14.2859 15.2134C13.9089 15.3097 13.5144 15.101 13.4179 14.7559C13.3215 14.4107 13.5494 14.0576 13.9264 13.9612ZM13.7861 13.4716C13.1111 13.6402 12.7078 14.2662 12.8919 14.8843C13.0672 15.5024 13.7598 15.8716 14.4349 15.703C15.11 15.5345 15.5133 14.9004 15.3292 14.2903C15.1538 13.6723 14.4612 13.3111 13.7861 13.4716Z" fill="#63A60F"/>
<path opacity="0.5" d="M14.6803 14.9805C14.5839 15.0928 14.4524 15.1811 14.2946 15.2213C13.9176 15.3176 13.523 15.1089 13.4266 14.7638C13.3565 14.5069 13.4529 14.25 13.6633 14.0975C13.5581 13.9611 13.4704 13.8086 13.3828 13.6561C12.9619 13.929 12.7515 14.4186 12.8918 14.9002C13.0671 15.5183 13.7598 15.8875 14.4348 15.7189C14.7505 15.6387 15.0047 15.4621 15.1713 15.2293C15.0047 15.149 14.8381 15.0688 14.6803 14.9805Z" fill="#63A60F"/>
<path d="M3.51069 13.9612C3.88769 13.8729 4.28222 14.0816 4.37866 14.4268C4.4751 14.7719 4.24715 15.1331 3.87016 15.2214C3.49316 15.3097 3.09863 15.101 3.00219 14.7559C2.90575 14.4107 3.1337 14.0495 3.51069 13.9612ZM3.37042 13.4716C2.69533 13.6321 2.29203 14.2662 2.46738 14.8843C2.64273 15.5024 3.33535 15.8716 4.01043 15.7111C4.68552 15.5505 5.08882 14.9164 4.92224 14.2984C4.73812 13.6803 4.0455 13.3111 3.37042 13.4716Z" fill="#63A60F"/>
<path opacity="0.5" d="M4.25602 14.9885C4.15958 15.1009 4.02807 15.1892 3.87026 15.2213C3.49326 15.3096 3.09873 15.1009 3.00229 14.7558C2.93215 14.4989 3.03736 14.242 3.23901 14.0895C3.1338 13.9531 3.04613 13.8006 2.96722 13.6481C2.54639 13.913 2.32721 14.4026 2.46748 14.8842C2.64283 15.5022 3.33545 15.8715 4.01053 15.7109C4.32616 15.6387 4.58918 15.4541 4.74699 15.2213C4.57164 15.1571 4.41383 15.0768 4.25602 14.9885Z" fill="#63A60F"/>
<path d="M3.5984 2.81215C3.43182 2.81215 3.29154 2.68372 3.29154 2.53121C3.29154 1.87302 3.0899 1.37537 2.70413 1.04627C2.08165 0.508486 1.14355 0.564673 1.13478 0.564673C0.968199 0.580726 0.819155 0.460326 0.80162 0.307819C0.784085 0.155311 0.915595 0.0188577 1.08217 0.00280433C1.13478 0.00280433 2.29207 -0.0774626 3.1162 0.62086C3.64224 1.06233 3.90526 1.70446 3.90526 2.52319C3.90526 2.68372 3.77375 2.81215 3.5984 2.81215Z" fill="#63A60F"/>
</svg>
