<svg width="256" height="256" viewBox="0 0 256 256" fill="none" xmlns="http://www.w3.org/2000/svg">
<path opacity="0.2" d="M245.966 252.019C245.966 249.835 197.009 248.038 136.69 248.038C76.3709 248.038 27.4141 249.835 27.4141 252.019C27.4141 254.202 76.3709 256 136.69 256C197.15 256 245.966 254.202 245.966 252.019Z" fill="#5D5D5D"/>
<path d="M138.233 50.3885C185.787 50.3885 224.363 85.706 224.363 129.243V208.097H138.233C90.679 208.097 52.1027 172.78 52.1027 129.243V50.3885H138.233Z" fill="#63A60F"/>
<path opacity="0.3" d="M212.019 88.6599C204.865 96.2371 200.516 106.126 200.516 116.914C200.516 132.967 210.055 146.966 224.223 154.543V129.243C224.223 114.474 219.875 100.604 212.019 88.6599Z" fill="#63A60F"/>
<path d="M178.212 59.5068C164.746 66.5703 155.768 79.7982 155.768 95.0811C155.768 117.684 175.827 136.049 200.516 136.049C209.214 136.049 217.35 133.738 224.223 129.756V129.243C224.223 98.9339 205.566 72.6063 178.212 59.5068Z" fill="#63A60F"/>
<path opacity="0.5" d="M110.598 65.6677C88.4345 65.6677 68.0943 72.7312 52.1027 84.6749V129.368C52.1027 172.904 90.6789 208.222 138.233 208.222H179.475C194.484 193.067 203.602 173.033 203.602 150.943C203.602 103.811 161.94 65.6677 110.598 65.6677Z" fill="#EFF6E7"/>
<path d="M224.223 207.968L138.233 208.097C90.679 208.097 52.1027 172.779 52.1027 129.242V50.5167L224.223 207.968Z" fill="#63A60F"/>
<path opacity="0.3" d="M65.4292 78.6424C65.4292 138.489 118.454 186.906 183.683 186.906C189.294 186.906 194.765 186.521 200.096 185.879L66.5514 63.7448C65.85 68.625 65.4292 73.6337 65.4292 78.6424Z" fill="#63A60F"/>
<path opacity="0.3" d="M224.223 208.097L52.8042 51.1589C73.0042 78.7707 96.2902 106.768 119.997 129.885C138.514 147.864 191.959 188.062 224.223 208.097Z" fill="#63A60F"/>
<path opacity="0.3" d="M108.354 101.887L52.1027 50.5167V129.371C52.1027 164.175 76.7915 193.713 110.879 204.115C96.2901 190.631 87.3123 172.137 87.3123 151.846C87.3123 132.582 95.3081 115.115 108.354 101.887Z" fill="#63A60F"/>
<path opacity="0.3" d="M184.945 172.137C170.357 188.448 148.193 198.979 123.364 198.979C106.811 198.979 91.3804 194.355 78.6151 186.393C94.0456 199.878 114.947 208.225 138.093 208.225H224.223V208.097L184.945 172.137Z" fill="#63A60F"/>
<path opacity="0.3" d="M57.1526 97.6494C57.1526 84.9351 59.5374 72.6061 64.0262 61.3045L52.1027 50.5167V129.371C52.1027 172.908 90.679 208.225 138.233 208.225H224.363V208.097L215.806 200.263C203.322 204.372 189.995 206.556 175.968 206.556C110.318 206.427 57.1526 157.753 57.1526 97.6494Z" fill="#EFF6E7"/>
<path d="M222.821 223.38C228.853 221.839 235.165 225.178 236.708 230.7C238.392 236.222 234.744 242.002 228.572 243.414C222.54 244.955 216.228 241.616 214.685 236.094C213.142 230.572 216.789 224.921 222.821 223.38ZM220.576 215.546C209.775 218.243 203.322 228.26 206.268 238.149C209.074 248.038 220.156 253.945 230.957 251.248C241.758 248.551 248.211 238.406 245.265 228.645C242.46 218.756 231.378 212.977 220.576 215.546Z" fill="#63A60F"/>
<path opacity="0.5" d="M234.883 239.688C233.34 241.486 231.236 242.899 228.711 243.541C222.679 245.082 216.367 241.743 214.823 236.22C213.701 232.111 215.244 228.001 218.611 225.561C216.928 223.378 215.525 220.937 214.122 218.497C207.389 222.864 204.022 230.698 206.267 238.404C209.072 248.292 220.154 254.2 230.955 251.503C236.005 250.219 240.073 247.393 242.739 243.669C240.073 242.385 237.408 241.101 234.883 239.688Z" fill="#63A60F"/>
<path d="M56.1693 223.38C62.2012 221.967 68.5137 225.306 70.0567 230.829C71.5998 236.351 67.9526 242.13 61.9206 243.543C55.8887 244.955 49.5762 241.616 48.0332 236.094C46.4901 230.572 50.1373 224.792 56.1693 223.38ZM53.9248 215.546C43.1235 218.114 36.6707 228.26 39.4763 238.149C42.2818 248.038 53.3637 253.945 64.1651 251.377C74.9664 248.808 81.4192 238.663 78.7539 228.774C75.8081 218.885 64.7262 212.977 53.9248 215.546Z" fill="#63A60F"/>
<path opacity="0.5" d="M68.0947 239.817C66.5517 241.615 64.4475 243.027 61.9225 243.541C55.8906 244.954 49.5781 241.615 48.0351 236.092C46.9128 231.983 48.5962 227.873 51.8225 225.433C50.1392 223.249 48.7364 220.809 47.4739 218.369C40.7406 222.607 37.2337 230.441 39.4781 238.147C42.2837 248.036 53.3656 253.944 64.1669 251.375C69.2169 250.219 73.4253 247.265 75.9503 243.541C73.1447 242.514 70.6197 241.229 68.0947 239.817Z" fill="#63A60F"/>
<path d="M57.5737 44.9943C54.9084 44.9943 52.664 42.9395 52.664 40.4994C52.664 29.9684 49.4376 22.0059 43.2654 16.7404C33.3057 8.13577 18.296 9.03476 18.1557 9.03476C15.4905 9.29162 13.1057 7.36521 12.8252 4.9251C12.5446 2.48498 14.6488 0.301723 17.3141 0.0448693C18.1557 0.0448693 36.6723 -1.2394 49.8584 9.93375C58.2751 16.9972 62.4834 27.2714 62.4834 40.371C62.4834 42.9395 60.3792 44.9943 57.5737 44.9943Z" fill="#63A60F"/>
</svg>
