<svg width="96" height="96" viewBox="0 0 96 96" fill="none" xmlns="http://www.w3.org/2000/svg">
<path opacity="0.2" d="M92.2374 94.507C92.2374 93.6883 73.8786 93.014 51.2588 93.014C28.6391 93.014 10.2803 93.6883 10.2803 94.507C10.2803 95.3257 28.6391 95.9999 51.2588 95.9999C73.9312 95.9999 92.2374 95.3257 92.2374 94.507Z" fill="#5D5D5D"/>
<path d="M51.8375 18.8957C69.6702 18.8957 84.1363 32.1397 84.1363 48.466V78.0364H51.8375C34.0047 78.0364 19.5386 64.7923 19.5386 48.466V18.8957H51.8375Z" fill="#63A60F"/>
<path opacity="0.3" d="M79.5071 33.2474C76.8243 36.0889 75.1936 39.7972 75.1936 43.8427C75.1936 49.8627 78.7707 55.1122 84.0837 57.9536V48.466C84.0837 42.9276 82.453 37.7263 79.5071 33.2474Z" fill="#63A60F"/>
<path d="M66.8296 22.315C61.7796 24.9638 58.413 29.9243 58.413 35.6554C58.413 44.1315 65.9353 51.0184 75.1937 51.0184C78.4551 51.0184 81.5061 50.1516 84.0837 48.6586V48.466C84.0837 37.1002 77.0874 27.2273 66.8296 22.315Z" fill="#63A60F"/>
<path opacity="0.5" d="M41.4745 24.6254C33.163 24.6254 25.5354 27.2742 19.5386 31.7531V48.5128C19.5386 64.8391 34.0047 78.0831 51.8375 78.0831H67.303C72.9317 72.4002 76.3509 64.8873 76.3509 56.6037C76.3509 38.9289 60.7275 24.6254 41.4745 24.6254Z" fill="#EFF6E7"/>
<path d="M84.0837 77.9881L51.8375 78.0362C34.0047 78.0362 19.5386 64.7922 19.5386 48.4659V18.9437L84.0837 77.9881Z" fill="#63A60F"/>
<path opacity="0.3" d="M24.536 29.4909C24.536 51.9335 44.4203 70.0899 68.8812 70.0899C70.9854 70.0899 73.0369 69.9454 75.0359 69.7046L24.9568 23.9043C24.6938 25.7344 24.536 27.6126 24.536 29.4909Z" fill="#63A60F"/>
<path opacity="0.3" d="M84.0838 78.0363L19.8016 19.1846C27.3766 29.539 36.1089 40.0379 44.999 48.7067C51.9427 55.4492 71.9849 70.5233 84.0838 78.0363Z" fill="#63A60F"/>
<path opacity="0.3" d="M40.6328 38.2078L19.5386 18.9437V48.5141C19.5386 61.5655 28.7969 72.6423 41.5797 76.5433C36.1088 71.4864 32.7422 64.5514 32.7422 56.9421C32.7422 49.7181 35.7406 43.1683 40.6328 38.2078Z" fill="#63A60F"/>
<path opacity="0.3" d="M69.3546 64.5515C63.8838 70.6678 55.5723 74.617 46.2614 74.617C40.0541 74.617 34.2677 72.8832 29.4807 69.8973C35.2672 74.9541 43.1052 78.0845 51.7848 78.0845H84.0837V78.0363L69.3546 64.5515Z" fill="#63A60F"/>
<path opacity="0.3" d="M21.4323 36.6185C21.4323 31.8506 22.3266 27.2273 24.0099 22.9892L19.5386 18.9437V48.5141C19.5386 64.8404 34.0047 78.0844 51.8375 78.0844H84.1363V78.0362L80.9275 75.0985C76.2457 76.6396 71.2483 77.4583 65.9879 77.4583C41.3693 77.4102 21.4323 59.1575 21.4323 36.6185Z" fill="#EFF6E7"/>
<path d="M83.5578 83.7674C85.8197 83.1895 88.1869 84.4416 88.7656 86.5125C89.3968 88.5834 88.0291 90.7506 85.7145 91.2804C83.4526 91.8583 81.0854 90.6061 80.5067 88.5353C79.9281 86.4644 81.2958 84.3453 83.5578 83.7674ZM82.7161 80.8296C78.6656 81.841 76.2458 85.5975 77.3505 89.3058C78.4026 93.0141 82.5583 95.2295 86.6088 94.2181C90.6593 93.2068 93.0791 89.4021 91.9744 85.742C90.9223 82.0336 86.7666 79.8664 82.7161 80.8296Z" fill="#63A60F"/>
<path opacity="0.5" d="M88.0811 89.883C87.5024 90.5572 86.7134 91.087 85.7665 91.3278C83.5045 91.9057 81.1374 90.6535 80.5587 88.5826C80.1379 87.0415 80.7165 85.5004 81.979 84.5853C81.3478 83.7666 80.8217 82.8516 80.2957 81.9365C77.7707 83.574 76.5082 86.5117 77.3499 89.4014C78.402 93.1097 82.5577 95.3251 86.6082 94.3137C88.5019 93.8321 90.0274 92.7726 91.0269 91.3759C90.0274 90.8943 89.028 90.4127 88.0811 89.883Z" fill="#63A60F"/>
<path d="M21.0634 83.7674C23.3254 83.2376 25.6926 84.4898 26.2712 86.5607C26.8499 88.6316 25.4822 90.7988 23.2202 91.3285C20.9582 91.8583 18.591 90.6061 18.0124 88.5353C17.4338 86.4644 18.8015 84.2972 21.0634 83.7674ZM20.2218 80.8296C16.1713 81.7929 13.7515 85.5975 14.8036 89.3058C15.8556 93.0141 20.0113 95.2295 24.0619 94.2663C28.1124 93.3031 30.5322 89.4985 29.5327 85.7901C28.428 82.0818 24.2723 79.8664 20.2218 80.8296Z" fill="#63A60F"/>
<path opacity="0.5" d="M25.5355 89.9312C24.9569 90.6055 24.1678 91.1352 23.2209 91.3279C20.959 91.8576 18.5918 90.6055 18.0131 88.5346C17.5923 86.9935 18.2235 85.4523 19.4334 84.5373C18.8022 83.7186 18.2762 82.8035 17.8027 81.8885C15.2777 83.4778 13.9626 86.4155 14.8043 89.3051C15.8564 93.0135 20.0121 95.2288 24.0626 94.2656C25.9563 93.8322 27.5345 92.7245 28.4813 91.3279C27.4292 90.9426 26.4824 90.461 25.5355 89.9312Z" fill="#63A60F"/>
<path d="M21.5902 16.8729C20.5907 16.8729 19.749 16.1023 19.749 15.1873C19.749 11.2381 18.5391 8.25221 16.2246 6.27765C12.4897 3.05092 6.86103 3.38804 6.80843 3.38804C5.80895 3.48436 4.91468 2.76195 4.80948 1.84691C4.70427 0.931869 5.49333 0.113146 6.4928 0.016826C6.80843 0.016826 13.7522 -0.464776 18.6969 3.72516C21.8532 6.37397 23.4313 10.2268 23.4313 15.1391C23.4313 16.1023 22.6422 16.8729 21.5902 16.8729Z" fill="#63A60F"/>
</svg>
