<svg width="144" height="144" viewBox="0 0 144 144" fill="none" xmlns="http://www.w3.org/2000/svg">
<path opacity="0.2" d="M138.356 141.761C138.356 140.532 110.818 139.521 76.8882 139.521C42.9586 139.521 15.4204 140.532 15.4204 141.761C15.4204 142.989 42.9586 144 76.8882 144C110.897 144 138.356 142.989 138.356 141.761Z" fill="#5D5D5D"/>
<path d="M77.7559 28.3436C104.505 28.3436 126.204 48.2096 126.204 72.6991V117.055H77.7559C51.0068 117.055 29.3076 97.1885 29.3076 72.6991V28.3436H77.7559Z" fill="#63A60F"/>
<path opacity="0.3" d="M119.261 49.8712C115.236 54.1334 112.79 59.6959 112.79 65.7641C112.79 74.7941 118.156 82.6683 126.125 86.9305V72.6991C126.125 64.3915 123.679 56.5896 119.261 49.8712Z" fill="#63A60F"/>
<path d="M100.244 33.4726C92.6692 37.4458 87.6193 44.8865 87.6193 53.4831C87.6193 66.1974 98.9028 76.5278 112.79 76.5278C117.682 76.5278 122.259 75.2274 126.125 72.988V72.699C126.125 55.6503 115.631 40.8411 100.244 33.4726Z" fill="#63A60F"/>
<path opacity="0.5" d="M62.2114 36.9381C49.7443 36.9381 38.3029 40.9113 29.3076 47.6297V72.7693C29.3076 97.2587 51.0068 117.125 77.7559 117.125H100.954C109.397 108.6 114.526 97.3309 114.526 84.9056C114.526 58.3935 91.091 36.9381 62.2114 36.9381Z" fill="#EFF6E7"/>
<path d="M126.125 116.982L77.7559 117.054C51.0068 117.054 29.3076 97.1883 29.3076 72.6989V28.4156L126.125 116.982Z" fill="#63A60F"/>
<path opacity="0.3" d="M36.8038 44.2363C36.8038 77.9003 66.6303 105.135 103.322 105.135C106.478 105.135 109.555 104.918 112.554 104.557L37.4351 35.8564C37.0406 38.6016 36.8038 41.4189 36.8038 44.2363Z" fill="#63A60F"/>
<path opacity="0.3" d="M126.125 117.054L29.7023 28.7769C41.0647 44.3085 54.1632 60.0569 67.4983 73.0601C77.9139 83.1737 107.977 105.785 126.125 117.054Z" fill="#63A60F"/>
<path opacity="0.3" d="M60.9489 57.3117L29.3076 28.4156V72.7711C29.3076 92.3482 43.1951 108.963 62.3693 114.815C54.163 107.23 49.113 96.8271 49.113 85.4132C49.113 74.5772 53.6107 64.7525 60.9489 57.3117Z" fill="#63A60F"/>
<path opacity="0.3" d="M104.032 96.8274C95.8255 106.002 83.3584 111.926 69.392 111.926C60.0811 111.926 51.4014 109.325 44.2209 104.846C52.9006 112.431 64.6576 117.127 77.6771 117.127H126.125V117.055L104.032 96.8274Z" fill="#63A60F"/>
<path opacity="0.3" d="M32.1482 54.9278C32.1482 47.776 33.4896 40.841 36.0146 34.4838L29.3076 28.4156V72.7712C29.3076 97.2606 51.0068 117.127 77.7559 117.127H126.204V117.054L121.391 112.648C114.368 114.959 106.872 116.188 98.9817 116.188C62.0536 116.115 32.1482 88.7362 32.1482 54.9278Z" fill="#EFF6E7"/>
<path d="M125.337 125.651C128.73 124.784 132.28 126.662 133.148 129.769C134.095 132.875 132.044 136.126 128.572 136.921C125.179 137.787 121.628 135.909 120.76 132.803C119.892 129.697 121.944 126.518 125.337 125.651ZM124.074 121.244C117.998 122.761 114.369 128.396 116.026 133.959C117.604 139.521 123.837 142.844 129.913 141.327C135.989 139.81 139.619 134.103 137.962 128.613C136.383 123.05 130.15 119.8 124.074 121.244Z" fill="#63A60F"/>
<path opacity="0.5" d="M132.122 134.824C131.254 135.836 130.07 136.63 128.65 136.992C125.257 137.859 121.706 135.98 120.838 132.874C120.207 130.562 121.075 128.251 122.969 126.878C122.022 125.65 121.233 124.277 120.444 122.905C116.656 125.361 114.762 129.768 116.025 134.102C117.603 139.665 123.837 142.988 129.912 141.471C132.753 140.748 135.041 139.159 136.54 137.064C135.041 136.341 133.542 135.619 132.122 134.824Z" fill="#63A60F"/>
<path d="M31.5951 125.651C34.9881 124.856 38.5389 126.735 39.4068 129.841C40.2748 132.947 38.2233 136.198 34.8303 136.993C31.4373 137.787 27.8866 135.909 27.0186 132.803C26.1506 129.697 28.2022 126.446 31.5951 125.651ZM30.3326 121.244C24.2569 122.689 20.6272 128.396 22.2053 133.959C23.7834 139.521 30.017 142.844 36.0928 141.399C42.1686 139.955 45.7982 134.248 44.299 128.685C42.642 123.123 36.4084 119.8 30.3326 121.244Z" fill="#63A60F"/>
<path opacity="0.5" d="M38.3032 134.897C37.4352 135.908 36.2516 136.703 34.8313 136.992C31.4384 137.786 27.8876 135.908 27.0196 132.802C26.3884 130.49 27.3353 128.178 29.1501 126.806C28.2032 125.578 27.4142 124.205 26.704 122.833C22.9165 125.217 20.9439 129.623 22.2064 133.958C23.7845 139.52 30.0181 142.843 36.0938 141.398C38.9344 140.748 41.3016 139.087 42.7219 136.992C41.1438 136.414 39.7235 135.691 38.3032 134.897Z" fill="#63A60F"/>
<path d="M32.3851 25.3093C30.8859 25.3093 29.6234 24.1535 29.6234 22.7809C29.6234 16.8572 27.8086 12.3783 24.3367 9.41647C18.7344 4.57637 10.2914 5.08205 10.2125 5.08205C8.71331 5.22654 7.3719 4.14293 7.21409 2.77037C7.05628 1.3978 8.23987 0.169719 9.73909 0.025239C10.2125 0.025239 20.6281 -0.697163 28.0453 5.58774C32.7796 9.56095 35.1468 15.3402 35.1468 22.7087C35.1468 24.1535 33.9632 25.3093 32.3851 25.3093Z" fill="#63A60F"/>
</svg>
