<svg width="384" height="384" viewBox="0 0 384 384" fill="none" xmlns="http://www.w3.org/2000/svg">
<path opacity="0.2" d="M368.949 378.028C368.949 374.753 295.514 372.056 205.035 372.056C114.556 372.056 41.1211 374.753 41.1211 378.028C41.1211 381.303 114.556 384 205.035 384C295.725 384 368.949 381.303 368.949 378.028Z" fill="#5D5D5D"/>
<path d="M207.349 75.5828C278.681 75.5828 336.545 128.559 336.545 193.864V312.145H207.349C136.018 312.145 78.1539 259.169 78.1539 193.864V75.5828H207.349Z" fill="#63A60F"/>
<path opacity="0.3" d="M318.028 132.99C307.297 144.356 300.774 159.189 300.774 175.371C300.774 199.451 315.083 220.449 336.335 231.814V193.864C336.335 171.711 329.812 150.905 318.028 132.99Z" fill="#63A60F"/>
<path d="M267.318 89.2601C247.118 99.8554 233.652 119.697 233.652 142.622C233.652 176.526 263.741 204.074 300.774 204.074C313.82 204.074 326.024 200.606 336.335 194.635V193.864C336.335 148.401 308.349 108.909 267.318 89.2601Z" fill="#63A60F"/>
<path opacity="0.5" d="M165.897 98.5015C132.652 98.5015 102.141 109.097 78.1539 127.012V194.051C78.1539 259.356 136.018 312.333 207.349 312.333H269.212C291.726 289.601 305.403 259.549 305.403 226.415C305.403 155.716 242.91 98.5015 165.897 98.5015Z" fill="#EFF6E7"/>
<path d="M336.335 311.952L207.349 312.145C136.018 312.145 78.1539 259.169 78.1539 193.864V75.775L336.335 311.952Z" fill="#63A60F"/>
<path opacity="0.3" d="M98.1438 117.964C98.1438 207.734 177.681 280.36 275.525 280.36C283.941 280.36 292.147 279.782 300.143 278.818L99.8271 95.6172C98.775 102.938 98.1438 110.451 98.1438 117.964Z" fill="#63A60F"/>
<path opacity="0.3" d="M336.335 312.145L79.2063 76.7383C109.506 118.156 144.435 160.152 179.996 194.827C207.771 221.797 287.939 282.093 336.335 312.145Z" fill="#63A60F"/>
<path opacity="0.3" d="M162.531 152.831L78.1539 75.775V194.056C78.1539 246.262 115.187 290.569 166.318 306.173C144.435 285.946 130.968 258.206 130.968 227.768C130.968 198.872 142.962 172.673 162.531 152.831Z" fill="#63A60F"/>
<path opacity="0.3" d="M277.418 258.206C255.535 282.672 222.289 298.468 185.046 298.468C160.216 298.468 137.071 291.533 117.923 279.589C141.069 299.817 172.421 312.338 207.139 312.338H336.335V312.146L277.418 258.206Z" fill="#63A60F"/>
<path opacity="0.3" d="M85.7289 146.474C85.7289 127.403 89.306 108.909 96.0393 91.9568L78.1539 75.775V194.056C78.1539 259.362 136.018 312.338 207.349 312.338H336.545V312.145L323.71 300.394C304.983 306.558 284.993 309.833 263.951 309.833C165.477 309.641 85.7289 236.63 85.7289 146.474Z" fill="#EFF6E7"/>
<path d="M334.231 335.069C343.279 332.758 352.748 337.766 355.062 346.05C357.587 354.334 352.116 363.002 342.858 365.121C333.81 367.433 324.341 362.424 322.027 354.141C319.712 345.857 325.183 337.381 334.231 335.069ZM330.864 323.318C314.662 327.364 304.983 342.39 309.402 357.223C313.61 372.056 330.233 380.918 346.435 376.872C362.637 372.827 372.316 357.608 367.898 342.968C363.689 328.134 347.066 319.466 330.864 323.318Z" fill="#63A60F"/>
<path opacity="0.5" d="M352.325 359.532C350.01 362.229 346.854 364.348 343.066 365.311C334.018 367.623 324.55 362.614 322.235 354.331C320.552 348.166 322.866 342.002 327.916 338.341C325.391 335.066 323.287 331.406 321.183 327.746C311.083 334.296 306.033 346.047 309.4 357.605C313.608 372.439 330.231 381.3 346.433 377.255C354.008 375.328 360.11 371.09 364.108 365.504C360.11 363.577 356.112 361.651 352.325 359.532Z" fill="#63A60F"/>
<path d="M84.2537 335.07C93.3016 332.951 102.77 337.959 105.085 346.243C107.399 354.526 101.929 363.195 92.8808 365.314C83.8329 367.433 74.3642 362.425 72.0496 354.141C69.735 345.858 75.2058 337.189 84.2537 335.07ZM80.8871 323.319C64.685 327.171 55.0059 342.39 59.2142 357.223C63.4225 372.057 80.0454 380.918 96.2474 377.065C112.449 373.212 122.129 357.994 118.131 343.161C113.712 328.327 97.0891 319.466 80.8871 323.319Z" fill="#63A60F"/>
<path opacity="0.5" d="M102.142 359.725C99.8273 362.422 96.6711 364.541 92.8836 365.311C83.8357 367.431 74.367 362.422 72.0524 354.138C70.3691 347.974 72.8941 341.809 77.7336 338.149C75.2086 334.874 73.1045 331.214 71.2107 327.554C61.1108 333.911 55.8504 345.662 59.217 357.221C63.4253 372.054 80.0482 380.915 96.2502 377.063C103.825 375.329 110.138 370.898 113.925 365.311C109.717 363.77 105.929 361.844 102.142 359.725Z" fill="#63A60F"/>
<path d="M86.3604 67.4915C82.3625 67.4915 78.9958 64.4093 78.9958 60.7491C78.9958 44.9526 74.1563 33.0088 64.898 25.1106C49.9584 12.2037 27.4439 13.5521 27.2335 13.5521C23.2356 13.9374 19.6585 11.0478 19.2377 7.38765C18.8168 3.72748 21.9731 0.452585 25.971 0.0673039C27.2335 0.0673039 55.0084 -1.8591 74.7875 14.9006C87.4125 25.4959 93.725 40.9071 93.725 60.5565C93.725 64.4093 90.5687 67.4915 86.3604 67.4915Z" fill="#63A60F"/>
</svg>
